<svg xmlns:xlink="http://www.w3.org/1999/xlink" width="195.951" xmlns="http://www.w3.org/2000/svg" height="240" id="screenshot-9d518e4c-5d3d-80e5-8003-28dbc23f7871" viewBox="-1.951 0 195.951 240" style="-webkit-print-color-adjust: exact;" fill="none" version="1.1"><g id="shape-9d518e4c-5d3d-80e5-8003-28dbc23f7871" rx="0" ry="0"><g id="shape-9d518e4c-5d3d-80e5-8003-28d5621c58dc"><g class="fills" id="fills-9d518e4c-5d3d-80e5-8003-28d5621c58dc"><rect rx="15" ry="15" x="0" y="0" transform="matrix(1.000000, 0.000000, 0.000000, 1.000000, 0.000000, 0.000000)" width="194" height="240" style="fill: rgb(238, 238, 238); fill-opacity: 1;"/></g></g><g id="shape-9d518e4c-5d3d-80e5-8003-28d5e8677914"><g class="fills" id="fills-9d518e4c-5d3d-80e5-8003-28d5e8677914"><path rx="0" ry="0" d="M23.000,101.000C23.000,101.000,36.000,92.000,49.000,101.000C62.000,110.000,73.000,102.000,73.000,102.000C73.000,102.000,87.000,93.000,100.000,102.000C110.465,109.245,124.000,100.000,124.000,100.000C124.000,100.000,136.000,94.000,146.000,102.000C156.000,110.000,171.000,102.000,171.000,102.000M73.000,102.000"/></g><g id="strokes-9d518e4c-5d3d-80e5-8003-28d5e8677914" class="strokes"><g class="stroke-shape"><path rx="0" ry="0" d="M23.000,101.000C23.000,101.000,36.000,92.000,49.000,101.000C62.000,110.000,73.000,102.000,73.000,102.000C73.000,102.000,87.000,93.000,100.000,102.000C110.465,109.245,124.000,100.000,124.000,100.000C124.000,100.000,136.000,94.000,146.000,102.000C156.000,110.000,171.000,102.000,171.000,102.000M73.000,102.000" style="fill: none; stroke-width: 2; stroke: rgb(0, 0, 0); stroke-opacity: 0.71875;"/></g></g></g><g id="shape-9d518e4c-5d3d-80e5-8003-28d63f0bcdf0"><g class="fills" id="fills-9d518e4c-5d3d-80e5-8003-28d63f0bcdf0"><path rx="0" ry="0" d="M23.000,167.000C23.000,167.000,36.000,158.000,49.000,167.000C62.000,176.000,73.000,168.000,73.000,168.000C73.000,168.000,87.000,159.000,100.000,168.000C110.465,175.245,124.000,166.000,124.000,166.000C124.000,166.000,136.000,160.000,146.000,168.000C156.000,176.000,171.000,168.000,171.000,168.000M73.000,168.000"/></g><g id="strokes-9d518e4c-5d3d-80e5-8003-28d63f0bcdf0" class="strokes"><g class="stroke-shape"><path rx="0" ry="0" d="M23.000,167.000C23.000,167.000,36.000,158.000,49.000,167.000C62.000,176.000,73.000,168.000,73.000,168.000C73.000,168.000,87.000,159.000,100.000,168.000C110.465,175.245,124.000,166.000,124.000,166.000C124.000,166.000,136.000,160.000,146.000,168.000C156.000,176.000,171.000,168.000,171.000,168.000M73.000,168.000" style="fill: none; stroke-width: 2; stroke: rgb(0, 0, 0); stroke-opacity: 0.71875;"/></g></g></g><g id="shape-9d518e4c-5d3d-80e5-8003-28d6386c7ec7"><g class="fills" id="fills-9d518e4c-5d3d-80e5-8003-28d6386c7ec7"><path rx="0" ry="0" d="M23.000,134.000C23.000,134.000,36.000,125.000,49.000,134.000C62.000,143.000,73.000,135.000,73.000,135.000C73.000,135.000,87.000,126.000,100.000,135.000C110.465,142.245,124.000,133.000,124.000,133.000C124.000,133.000,136.000,127.000,146.000,135.000C156.000,143.000,171.000,135.000,171.000,135.000M73.000,135.000"/></g><g id="strokes-9d518e4c-5d3d-80e5-8003-28d6386c7ec7" class="strokes"><g class="stroke-shape"><path rx="0" ry="0" d="M23.000,134.000C23.000,134.000,36.000,125.000,49.000,134.000C62.000,143.000,73.000,135.000,73.000,135.000C73.000,135.000,87.000,126.000,100.000,135.000C110.465,142.245,124.000,133.000,124.000,133.000C124.000,133.000,136.000,127.000,146.000,135.000C156.000,143.000,171.000,135.000,171.000,135.000M73.000,135.000" style="fill: none; stroke-width: 2; stroke: rgb(0, 0, 0); stroke-opacity: 0.71875;"/></g></g></g><g id="shape-9d518e4c-5d3d-80e5-8003-28d63f0bcdef"><g class="fills" id="fills-9d518e4c-5d3d-80e5-8003-28d63f0bcdef"><path rx="0" ry="0" d="M23.000,200.000C23.000,200.000,36.000,191.000,49.000,200.000C62.000,209.000,73.000,201.000,73.000,201.000C73.000,201.000,87.000,192.000,100.000,201.000C110.465,208.245,124.000,199.000,124.000,199.000C124.000,199.000,136.000,193.000,146.000,201.000C156.000,209.000,171.000,201.000,171.000,201.000M73.000,201.000"/></g><g id="strokes-9d518e4c-5d3d-80e5-8003-28d63f0bcdef" class="strokes"><g class="stroke-shape"><path rx="0" ry="0" d="M23.000,200.000C23.000,200.000,36.000,191.000,49.000,200.000C62.000,209.000,73.000,201.000,73.000,201.000C73.000,201.000,87.000,192.000,100.000,201.000C110.465,208.245,124.000,199.000,124.000,199.000C124.000,199.000,136.000,193.000,146.000,201.000C156.000,209.000,171.000,201.000,171.000,201.000M73.000,201.000" style="fill: none; stroke-width: 2; stroke: rgb(0, 0, 0); stroke-opacity: 0.71875;"/></g></g></g><g id="shape-5eeabafc-0664-8050-8003-28f101e5df06" rx="0" ry="0"><g id="shape-5eeabafc-0664-8050-8003-28f0bfa4af55"><g class="fills" id="fills-5eeabafc-0664-8050-8003-28f0bfa4af55"><rect rx="10" ry="10" x="23" y="16" transform="matrix(1.000000, 0.000000, 0.000000, 1.000000, 0.000000, 0.000000)" width="69" height="67" style="fill: rgb(135, 219, 222); fill-opacity: 1;"/></g></g><g id="shape-5eeabafc-0664-8050-8003-28f0f2b6c28d"><g class="fills" id="fills-5eeabafc-0664-8050-8003-28f0f2b6c28d"><path rx="0" ry="0" d="M92.000,62.050L92.000,72.541C92.000,78.060,87.519,82.541,82.000,82.541L33.000,82.541C27.481,82.541,23.000,78.060,23.000,72.541L23.000,58.594L34.552,46.000L46.359,56.831L64.282,37.000L92.000,62.050Z" style="fill: rgb(150, 212, 151); fill-opacity: 1;"/></g></g></g></g></svg>