<svg xmlns:xlink="http://www.w3.org/1999/xlink" width="173" xmlns="http://www.w3.org/2000/svg" height="182.123" id="screenshot-4bfd5b17-d06b-8017-8003-28fc4f091f97" viewBox="0 0 173 182.123" style="-webkit-print-color-adjust: exact;" fill="none" version="1.1"><g id="shape-4bfd5b17-d06b-8017-8003-28fc4f091f97" rx="0" ry="0"><g id="shape-4bfd5b17-d06b-8017-8003-28fc2cc1e4ca" rx="0" ry="0"><g id="shape-4bfd5b17-d06b-8017-8003-28fc2cc1e4cb"><g class="fills" id="fills-4bfd5b17-d06b-8017-8003-28fc2cc1e4cb"><rect rx="15" ry="15" x="25.262117643825036" y="18.06132954441611" transform="matrix(0.906933, -0.421275, 0.421275, 0.906933, -30.519833, 43.972329)" width="118" height="145.99999999999991" style="fill: rgb(238, 238, 238); fill-opacity: 1;"/></g></g><g id="shape-4bfd5b17-d06b-8017-8003-28fc2cc1e4cc"><g class="fills" id="fills-4bfd5b17-d06b-8017-8003-28fc2cc1e4cc"><path rx="0" ry="0" d="M38.572,99.540C38.572,99.540,43.436,91.244,52.914,92.878C62.392,94.513,66.410,87.280,66.410,87.280C66.410,87.280,71.826,78.727,81.304,80.362C88.934,81.677,94.031,73.109,94.031,73.109C94.031,73.109,99.113,66.723,106.679,68.575C114.246,70.426,120.470,62.169,120.470,62.169M66.410,87.280"/></g><g id="strokes-4bfd5b17-d06b-8017-8003-28fc2cc1e4cc" class="strokes"><g class="stroke-shape"><path rx="0" ry="0" d="M38.572,99.540C38.572,99.540,43.436,91.244,52.914,92.878C62.392,94.513,66.410,87.280,66.410,87.280C66.410,87.280,71.826,78.727,81.304,80.362C88.934,81.677,94.031,73.109,94.031,73.109C94.031,73.109,99.113,66.723,106.679,68.575C114.246,70.426,120.470,62.169,120.470,62.169M66.410,87.280" style="fill: none; stroke-width: 2; stroke: rgb(0, 0, 0); stroke-opacity: 0.71875;"/></g></g></g><g id="shape-4bfd5b17-d06b-8017-8003-28fc2cc1e4cd"><g class="fills" id="fills-4bfd5b17-d06b-8017-8003-28fc2cc1e4cd"><path rx="0" ry="0" d="M55.486,135.954C55.486,135.954,60.351,127.657,69.828,129.292C79.306,130.926,83.324,123.694,83.324,123.694C83.324,123.694,88.740,115.141,98.218,116.775C105.848,118.091,110.945,109.522,110.945,109.522C110.945,109.522,116.027,103.137,123.594,104.988C131.160,106.839,137.385,98.582,137.385,98.582M83.324,123.694"/></g><g id="strokes-4bfd5b17-d06b-8017-8003-28fc2cc1e4cd" class="strokes"><g class="stroke-shape"><path rx="0" ry="0" d="M55.486,135.954C55.486,135.954,60.351,127.657,69.828,129.292C79.306,130.926,83.324,123.694,83.324,123.694C83.324,123.694,88.740,115.141,98.218,116.775C105.848,118.091,110.945,109.522,110.945,109.522C110.945,109.522,116.027,103.137,123.594,104.988C131.160,106.839,137.385,98.582,137.385,98.582M83.324,123.694" style="fill: none; stroke-width: 2; stroke: rgb(0, 0, 0); stroke-opacity: 0.71875;"/></g></g></g><g id="shape-4bfd5b17-d06b-8017-8003-28fc2cc1e4ce"><g class="fills" id="fills-4bfd5b17-d06b-8017-8003-28fc2cc1e4ce"><path rx="0" ry="0" d="M47.029,117.747C47.029,117.747,51.893,109.451,61.371,111.085C70.849,112.719,74.867,105.487,74.867,105.487C74.867,105.487,80.283,96.934,89.761,98.568C97.391,99.884,102.488,91.315,102.488,91.315C102.488,91.315,107.570,84.930,115.137,86.781C122.703,88.633,128.928,80.375,128.928,80.375M74.867,105.487"/></g><g id="strokes-4bfd5b17-d06b-8017-8003-28fc2cc1e4ce" class="strokes"><g class="stroke-shape"><path rx="0" ry="0" d="M47.029,117.747C47.029,117.747,51.893,109.451,61.371,111.085C70.849,112.719,74.867,105.487,74.867,105.487C74.867,105.487,80.283,96.934,89.761,98.568C97.391,99.884,102.488,91.315,102.488,91.315C102.488,91.315,107.570,84.930,115.137,86.781C122.703,88.633,128.928,80.375,128.928,80.375M74.867,105.487" style="fill: none; stroke-width: 2; stroke: rgb(0, 0, 0); stroke-opacity: 0.71875;"/></g></g></g><g id="shape-4bfd5b17-d06b-8017-8003-28fc2cc1e4cf"><g class="fills" id="fills-4bfd5b17-d06b-8017-8003-28fc2cc1e4cf"><path rx="0" ry="0" d="M63.943,154.160C63.943,154.160,68.808,145.864,78.285,147.498C87.763,149.133,91.781,141.900,91.781,141.900C91.781,141.900,97.198,133.347,106.675,134.982C114.305,136.297,119.402,127.729,119.402,127.729C119.402,127.729,124.484,121.343,132.051,123.195C139.617,125.046,145.842,116.789,145.842,116.789M91.781,141.900"/></g><g id="strokes-4bfd5b17-d06b-8017-8003-28fc2cc1e4cf" class="strokes"><g class="stroke-shape"><path rx="0" ry="0" d="M63.943,154.160C63.943,154.160,68.808,145.864,78.285,147.498C87.763,149.133,91.781,141.900,91.781,141.900C91.781,141.900,97.198,133.347,106.675,134.982C114.305,136.297,119.402,127.729,119.402,127.729C119.402,127.729,124.484,121.343,132.051,123.195C139.617,125.046,145.842,116.789,145.842,116.789M91.781,141.900" style="fill: none; stroke-width: 2; stroke: rgb(0, 0, 0); stroke-opacity: 0.71875;"/></g></g></g><g id="shape-4bfd5b17-d06b-8017-8003-28fc2cc1e4d0" rx="0" ry="0"><g id="shape-4bfd5b17-d06b-8017-8003-28fc2cc1e4d1"><g class="fills" id="fills-4bfd5b17-d06b-8017-8003-28fc2cc1e4d1"><rect rx="10" ry="10" x="23.42038560345287" y="41.90753231047009" transform="matrix(0.906933, -0.421275, 0.421275, 0.906933, -22.107193, 24.503521)" width="41.969072164948386" height="40.758333333333354" style="fill: rgb(135, 219, 222); fill-opacity: 1;"/></g></g><g id="shape-4bfd5b17-d06b-8017-8003-28fc2cc1e4d2"><g class="fills" id="fills-4bfd5b17-d06b-8017-8003-28fc2cc1e4d2"><path rx="0" ry="0" d="M66.653,60.371L67.691,62.607C70.016,67.612,67.840,73.564,62.835,75.889L42.910,85.144C37.905,87.469,31.953,85.293,29.628,80.287L27.704,76.144L30.849,66.236L40.138,69.186L44.942,53.653L66.653,60.371Z" style="fill: rgb(150, 212, 151); fill-opacity: 1;"/></g></g></g></g><g id="shape-4bfd5b17-d06b-8017-8003-28fbe6e221bf" rx="0" ry="0"><g id="shape-4bfd5b17-d06b-8017-8003-28fbe6e221c0"><g class="fills" id="fills-4bfd5b17-d06b-8017-8003-28fbe6e221c0"><rect rx="15" ry="15" x="55" y="32.00000000000003" transform="matrix(1.000000, 0.000000, 0.000000, 1.000000, 0.000000, 0.000000)" width="118" height="145.99999999999997" style="fill: rgb(238, 238, 238); fill-opacity: 1;"/></g></g><g id="shape-4bfd5b17-d06b-8017-8003-28fbe6e221c1"><g class="fills" id="fills-4bfd5b17-d06b-8017-8003-28fbe6e221c1"><path rx="0" ry="0" d="M68.990,93.442C68.990,93.442,76.897,87.967,84.804,93.442C92.711,98.917,99.402,94.050,99.402,94.050C99.402,94.050,107.918,88.575,115.825,94.050C122.190,98.457,130.423,92.833,130.423,92.833C130.423,92.833,137.722,89.183,143.804,94.050C149.887,98.917,159.010,94.050,159.010,94.050M99.402,94.050"/></g><g id="strokes-4bfd5b17-d06b-8017-8003-28fbe6e221c1" class="strokes"><g class="stroke-shape"><path rx="0" ry="0" d="M68.990,93.442C68.990,93.442,76.897,87.967,84.804,93.442C92.711,98.917,99.402,94.050,99.402,94.050C99.402,94.050,107.918,88.575,115.825,94.050C122.190,98.457,130.423,92.833,130.423,92.833C130.423,92.833,137.722,89.183,143.804,94.050C149.887,98.917,159.010,94.050,159.010,94.050M99.402,94.050" style="fill: none; stroke-width: 2; stroke: rgb(0, 0, 0); stroke-opacity: 0.71875;"/></g></g></g><g id="shape-4bfd5b17-d06b-8017-8003-28fbe6e221c2"><g class="fills" id="fills-4bfd5b17-d06b-8017-8003-28fbe6e221c2"><path rx="0" ry="0" d="M68.990,133.592C68.990,133.592,76.897,128.117,84.804,133.592C92.711,139.067,99.402,134.200,99.402,134.200C99.402,134.200,107.918,128.725,115.825,134.200C122.190,138.607,130.423,132.983,130.423,132.983C130.423,132.983,137.722,129.333,143.804,134.200C149.887,139.067,159.010,134.200,159.010,134.200M99.402,134.200"/></g><g id="strokes-4bfd5b17-d06b-8017-8003-28fbe6e221c2" class="strokes"><g class="stroke-shape"><path rx="0" ry="0" d="M68.990,133.592C68.990,133.592,76.897,128.117,84.804,133.592C92.711,139.067,99.402,134.200,99.402,134.200C99.402,134.200,107.918,128.725,115.825,134.200C122.190,138.607,130.423,132.983,130.423,132.983C130.423,132.983,137.722,129.333,143.804,134.200C149.887,139.067,159.010,134.200,159.010,134.200M99.402,134.200" style="fill: none; stroke-width: 2; stroke: rgb(0, 0, 0); stroke-opacity: 0.71875;"/></g></g></g><g id="shape-4bfd5b17-d06b-8017-8003-28fbe6e221c3"><g class="fills" id="fills-4bfd5b17-d06b-8017-8003-28fbe6e221c3"><path rx="0" ry="0" d="M68.990,113.517C68.990,113.517,76.897,108.042,84.804,113.517C92.711,118.992,99.402,114.125,99.402,114.125C99.402,114.125,107.918,108.650,115.825,114.125C122.190,118.532,130.423,112.908,130.423,112.908C130.423,112.908,137.722,109.258,143.804,114.125C149.887,118.992,159.010,114.125,159.010,114.125M99.402,114.125"/></g><g id="strokes-4bfd5b17-d06b-8017-8003-28fbe6e221c3" class="strokes"><g class="stroke-shape"><path rx="0" ry="0" d="M68.990,113.517C68.990,113.517,76.897,108.042,84.804,113.517C92.711,118.992,99.402,114.125,99.402,114.125C99.402,114.125,107.918,108.650,115.825,114.125C122.190,118.532,130.423,112.908,130.423,112.908C130.423,112.908,137.722,109.258,143.804,114.125C149.887,118.992,159.010,114.125,159.010,114.125M99.402,114.125" style="fill: none; stroke-width: 2; stroke: rgb(0, 0, 0); stroke-opacity: 0.71875;"/></g></g></g><g id="shape-4bfd5b17-d06b-8017-8003-28fbe6e221c4"><g class="fills" id="fills-4bfd5b17-d06b-8017-8003-28fbe6e221c4"><path rx="0" ry="0" d="M68.990,153.667C68.990,153.667,76.897,148.192,84.804,153.667C92.711,159.142,99.402,154.275,99.402,154.275C99.402,154.275,107.918,148.800,115.825,154.275C122.190,158.682,130.423,153.058,130.423,153.058C130.423,153.058,137.722,149.408,143.804,154.275C149.887,159.142,159.010,154.275,159.010,154.275M99.402,154.275"/></g><g id="strokes-4bfd5b17-d06b-8017-8003-28fbe6e221c4" class="strokes"><g class="stroke-shape"><path rx="0" ry="0" d="M68.990,153.667C68.990,153.667,76.897,148.192,84.804,153.667C92.711,159.142,99.402,154.275,99.402,154.275C99.402,154.275,107.918,148.800,115.825,154.275C122.190,158.682,130.423,153.058,130.423,153.058C130.423,153.058,137.722,149.408,143.804,154.275C149.887,159.142,159.010,154.275,159.010,154.275M99.402,154.275" style="fill: none; stroke-width: 2; stroke: rgb(0, 0, 0); stroke-opacity: 0.71875;"/></g></g></g><g id="shape-4bfd5b17-d06b-8017-8003-28fbe6e221c5" rx="0" ry="0"><g id="shape-4bfd5b17-d06b-8017-8003-28fbe6e221c6"><g class="fills" id="fills-4bfd5b17-d06b-8017-8003-28fbe6e221c6"><rect rx="10" ry="10" x="68.98969072164948" y="41.73333333333332" transform="matrix(1.000000, 0.000000, 0.000000, 1.000000, 0.000000, 0.000000)" width="41.96907216494844" height="40.7583333333333" style="fill: rgb(135, 219, 222); fill-opacity: 1;"/></g></g><g id="shape-4bfd5b17-d06b-8017-8003-28fbe6e221c7"><g class="fills" id="fills-4bfd5b17-d06b-8017-8003-28fbe6e221c7"><path rx="0" ry="0" d="M110.959,69.747L110.959,72.213C110.959,77.732,106.478,82.213,100.959,82.213L78.990,82.213C73.471,82.213,68.990,77.732,68.990,72.213L68.990,67.645L76.016,59.984L83.198,66.572L94.099,54.508L110.959,69.747Z" style="fill: rgb(150, 212, 151); fill-opacity: 1;"/></g></g></g></g></g></svg>