<svg xmlns:xlink="http://www.w3.org/1999/xlink" width="66" xmlns="http://www.w3.org/2000/svg" height="81" id="screenshot-9d518e4c-5d3d-80e5-8003-28df633c7dcb" viewBox="0 0 66 81" style="-webkit-print-color-adjust: exact;" fill="none" version="1.1"><g id="shape-9d518e4c-5d3d-80e5-8003-28df633c7dcb" rx="0" ry="0"><g id="shape-9d518e4c-5d3d-80e5-8003-28df633c7dcd"><g class="fills" id="fills-9d518e4c-5d3d-80e5-8003-28df633c7dcd"><rect rx="15" ry="15" x="0" y="0" transform="matrix(1.000000, 0.000000, 0.000000, 1.000000, 0.000000, 0.000000)" width="66" height="81" style="fill: rgb(238, 238, 238); fill-opacity: 1;"/></g></g><g id="shape-9d518e4c-5d3d-80e5-8003-28df633c7dce"><g class="fills" id="fills-9d518e4c-5d3d-80e5-8003-28df633c7dce"><path rx="0" ry="0" d="M7.825,34.087C7.825,34.087,12.247,31.050,16.670,34.087C21.093,37.125,24.835,34.425,24.835,34.425C24.835,34.425,29.598,31.388,34.021,34.425C37.581,36.870,42.186,33.750,42.186,33.750C42.186,33.750,46.268,31.725,49.670,34.425C53.072,37.125,58.175,34.425,58.175,34.425M24.835,34.425"/></g><g id="strokes-9d518e4c-5d3d-80e5-8003-28df633c7dce" class="strokes"><g class="stroke-shape"><path rx="0" ry="0" d="M7.825,34.087C7.825,34.087,12.247,31.050,16.670,34.087C21.093,37.125,24.835,34.425,24.835,34.425C24.835,34.425,29.598,31.388,34.021,34.425C37.581,36.870,42.186,33.750,42.186,33.750C42.186,33.750,46.268,31.725,49.670,34.425C53.072,37.125,58.175,34.425,58.175,34.425M24.835,34.425" style="fill: none; stroke-width: 2; stroke: rgb(0, 0, 0); stroke-opacity: 0.71875;"/></g></g></g><g id="shape-9d518e4c-5d3d-80e5-8003-28df633c7dcf"><g class="fills" id="fills-9d518e4c-5d3d-80e5-8003-28df633c7dcf"><path rx="0" ry="0" d="M7.825,56.363C7.825,56.363,12.247,53.325,16.670,56.363C21.093,59.400,24.835,56.700,24.835,56.700C24.835,56.700,29.598,53.663,34.021,56.700C37.581,59.145,42.186,56.025,42.186,56.025C42.186,56.025,46.268,54.000,49.670,56.700C53.072,59.400,58.175,56.700,58.175,56.700M24.835,56.700"/></g><g id="strokes-9d518e4c-5d3d-80e5-8003-28df633c7dcf" class="strokes"><g class="stroke-shape"><path rx="0" ry="0" d="M7.825,56.363C7.825,56.363,12.247,53.325,16.670,56.363C21.093,59.400,24.835,56.700,24.835,56.700C24.835,56.700,29.598,53.663,34.021,56.700C37.581,59.145,42.186,56.025,42.186,56.025C42.186,56.025,46.268,54.000,49.670,56.700C53.072,59.400,58.175,56.700,58.175,56.700M24.835,56.700" style="fill: none; stroke-width: 2; stroke: rgb(0, 0, 0); stroke-opacity: 0.71875;"/></g></g></g><g id="shape-9d518e4c-5d3d-80e5-8003-28df633c7dd0"><g class="fills" id="fills-9d518e4c-5d3d-80e5-8003-28df633c7dd0"><path rx="0" ry="0" d="M7.825,45.225C7.825,45.225,12.247,42.188,16.670,45.225C21.093,48.263,24.835,45.563,24.835,45.563C24.835,45.563,29.598,42.525,34.021,45.563C37.581,48.008,42.186,44.888,42.186,44.888C42.186,44.888,46.268,42.862,49.670,45.563C53.072,48.263,58.175,45.563,58.175,45.563M24.835,45.563"/></g><g id="strokes-9d518e4c-5d3d-80e5-8003-28df633c7dd0" class="strokes"><g class="stroke-shape"><path rx="0" ry="0" d="M7.825,45.225C7.825,45.225,12.247,42.188,16.670,45.225C21.093,48.263,24.835,45.563,24.835,45.563C24.835,45.563,29.598,42.525,34.021,45.563C37.581,48.008,42.186,44.888,42.186,44.888C42.186,44.888,46.268,42.862,49.670,45.563C53.072,48.263,58.175,45.563,58.175,45.563M24.835,45.563" style="fill: none; stroke-width: 2; stroke: rgb(0, 0, 0); stroke-opacity: 0.71875;"/></g></g></g><g id="shape-9d518e4c-5d3d-80e5-8003-28df633c7dd1"><g class="fills" id="fills-9d518e4c-5d3d-80e5-8003-28df633c7dd1"><path rx="0" ry="0" d="M7.825,67.500C7.825,67.500,12.247,64.463,16.670,67.500C21.093,70.538,24.835,67.838,24.835,67.838C24.835,67.838,29.598,64.800,34.021,67.838C37.581,70.283,42.186,67.163,42.186,67.163C42.186,67.163,46.268,65.138,49.670,67.838C53.072,70.538,58.175,67.838,58.175,67.838M24.835,67.838"/></g><g id="strokes-9d518e4c-5d3d-80e5-8003-28df633c7dd1" class="strokes"><g class="stroke-shape"><path rx="0" ry="0" d="M7.825,67.500C7.825,67.500,12.247,64.463,16.670,67.500C21.093,70.538,24.835,67.838,24.835,67.838C24.835,67.838,29.598,64.800,34.021,67.838C37.581,70.283,42.186,67.163,42.186,67.163C42.186,67.163,46.268,65.138,49.670,67.838C53.072,70.538,58.175,67.838,58.175,67.838M24.835,67.838" style="fill: none; stroke-width: 2; stroke: rgb(0, 0, 0); stroke-opacity: 0.71875;"/></g></g></g></g></svg>