<svg xmlns:xlink="http://www.w3.org/1999/xlink" width="229" xmlns="http://www.w3.org/2000/svg" height="229" id="screenshot-3dafb94f-bd28-80e9-8003-2a723da7e856" viewBox="-32 -32 229 229" style="-webkit-print-color-adjust: exact;" fill="none" version="1.1"><g id="shape-3dafb94f-bd28-80e9-8003-2a723da7e856" rx="0" ry="0" filter="url(#filter_rumext-id-1)"><defs><filter id="filter_rumext-id-1" x="-0.19148936170212766" y="-0.19148936170212766" width="1.4680851063829787" height="1.4680851063829787" filterUnits="objectBoundingBox" color-interpolation-filters="sRGB"><feFlood flood-opacity="0" result="BackgroundImageFix"/><feColorMatrix in="SourceAlpha" type="matrix" values="0 0 0 0 0 0 0 0 0 0 0 0 0 0 0 0 0 0 127 0"/><feOffset dx="4" dy="4"/><feGaussianBlur stdDeviation="2"/><feColorMatrix type="matrix" values="0 0 0 0 0 0 0 0 0 0 0 0 0 0 0 0 0 0 0.2 0"/><feBlend mode="normal" in2="BackgroundImageFix" result="filter_17f43791-96fb-80cd-8003-400e6b42e448"/><feBlend mode="normal" in="SourceGraphic" in2="filter_17f43791-96fb-80cd-8003-400e6b42e448" result="shape"/></filter><filter id="filter_shadow_rumext-id-1" x="-0.19148936170212766" y="-0.19148936170212766" width="1.4680851063829787" height="1.4680851063829787" filterUnits="objectBoundingBox" color-interpolation-filters="sRGB"><feFlood flood-opacity="0" result="BackgroundImageFix"/><feColorMatrix in="SourceAlpha" type="matrix" values="0 0 0 0 0 0 0 0 0 0 0 0 0 0 0 0 0 0 127 0"/><feOffset dx="4" dy="4"/><feGaussianBlur stdDeviation="2"/><feColorMatrix type="matrix" values="0 0 0 0 0 0 0 0 0 0 0 0 0 0 0 0 0 0 0.2 0"/><feBlend mode="normal" in2="BackgroundImageFix" result="filter_17f43791-96fb-80cd-8003-400e6b42e448"/><feBlend mode="normal" in="SourceGraphic" in2="filter_17f43791-96fb-80cd-8003-400e6b42e448" result="shape"/></filter></defs><g id="shape-3dafb94f-bd28-80e9-8003-2a723da7e857"><g class="fills" id="fills-3dafb94f-bd28-80e9-8003-2a723da7e857"><path rx="0" ry="0" d="M70.500,0.000C109.410,0.000,141.000,31.590,141.000,70.500C141.000,109.410,109.410,141.000,70.500,141.000C31.590,141.000,0.000,109.410,0.000,70.500C0.000,31.590,31.590,0.000,70.500,0.000Z" style="fill: rgb(215, 216, 219); fill-opacity: 1;"/></g></g><g id="shape-3dafb94f-bd28-80e9-8003-2a723da7e858"><g class="fills" id="fills-3dafb94f-bd28-80e9-8003-2a723da7e858"><ellipse rx="28.535714285714278" ry="28.535714285714334" cx="70.49999999999994" cy="48.678571428571445" transform="matrix(1.000000, 0.000000, 0.000000, 1.000000, 0.000000, 0.000000)" style="fill: rgb(191, 192, 195); fill-opacity: 1;"/></g></g><g id="shape-3dafb94f-bd28-80e9-8003-2a723da7e859"><g class="fills" id="fills-3dafb94f-bd28-80e9-8003-2a723da7e859"><path rx="0" ry="0" d="M115.821,124.487C103.563,134.790,87.751,141.000,70.500,141.000C53.249,141.000,37.437,134.790,25.179,124.487L25.179,120.857C25.179,102.329,40.221,87.286,58.750,87.286L82.250,87.286C100.779,87.286,115.821,102.329,115.821,120.857L115.821,124.487Z" style="fill: rgb(191, 192, 195); fill-opacity: 1;"/></g></g></g></svg>